<svg width="20" height="20" viewBox="0 0 20 20" fill="none"
     xmlns="http://www.w3.org/2000/svg">
    <path d="M7.5 5H7.78072C7.98455 5 8.08654 5 8.18244 5.02303C8.26747 5.04344 8.3491 5.07719 8.42367 5.12288C8.50774 5.1744 8.57992 5.24659 8.72396 5.39063L11.2762 7.94291C11.4204 8.08703 11.492 8.1587 11.5436 8.24279C11.5893 8.31735 11.6235 8.39886 11.6439 8.48389C11.6667 8.57881 11.6667 8.67961 11.6667 8.8793V15M7.5 5H3.83301C3.3663 5 3.13318 5 2.95492 5.09083C2.79811 5.17072 2.67072 5.29811 2.59083 5.45492C2.5 5.63318 2.5 5.8667 2.5 6.33341V16.1667C2.5 16.6335 2.5 16.8665 2.59083 17.0447C2.67072 17.2016 2.79811 17.3294 2.95492 17.4093C3.133 17.5 3.36585 17.5 3.83166 17.5L10.3342 17.5C10.8 17.5 11.0337 17.5 11.2118 17.4093C11.3686 17.3294 11.4956 17.2018 11.5755 17.0449C11.6663 16.8667 11.6667 16.6333 11.6667 16.1665V15M7.5 5V7.83333C7.5 8.30004 7.5 8.53324 7.59083 8.7115C7.67072 8.8683 7.79811 8.99603 7.95492 9.07593C8.133 9.16667 8.36584 9.16667 8.83164 9.16667H11.6663M8.33333 5.00008V3.83341C8.33333 3.3667 8.33333 3.13318 8.42416 2.95492C8.50406 2.79811 8.63145 2.67072 8.78825 2.59083C8.96651 2.5 9.19963 2.5 9.66634 2.5H13.3333M13.3333 2.5H13.6141C13.8179 2.5 13.9199 2.5 14.0158 2.52303C14.1008 2.54344 14.1824 2.57719 14.257 2.62288C14.3411 2.6744 14.4133 2.7466 14.5573 2.89063L17.1096 5.44291C17.2537 5.58704 17.3254 5.6587 17.3769 5.74279C17.4226 5.81735 17.4568 5.89886 17.4772 5.98389C17.5 6.07881 17.5 6.1796 17.5 6.3793V13.6665C17.5 14.1333 17.4997 14.3667 17.4089 14.545C17.329 14.7018 17.2024 14.8294 17.0456 14.9093C16.8676 15 16.6342 15 16.1684 15H11.6667M13.3333 2.5V5.33333C13.3333 5.80004 13.3333 6.03324 13.4242 6.2115C13.5041 6.3683 13.6314 6.49603 13.7882 6.57593C13.9663 6.66667 14.1992 6.66667 14.665 6.66667H17.4997"
          stroke="currentColor" stroke-width="1.5" stroke-linecap="round"
          stroke-linejoin="round"/>
</svg>
