<svg width="20" height="20" viewBox="0 0 20 20" fill="none"
     xmlns="http://www.w3.org/2000/svg">
    <path d="M1.66666 16.6667H3.33332M3.33332 16.6667H11.6667M3.33332 16.6667V5.16683C3.33332 4.23341 3.33332 3.76635 3.51498 3.40983C3.67477 3.09623 3.92955 2.84144 4.24315 2.68166C4.59967 2.5 5.06673 2.5 6.00015 2.5H9.00015C9.93357 2.5 10.3996 2.5 10.7562 2.68166C11.0698 2.84144 11.3254 3.09623 11.4852 3.40983C11.6667 3.766 11.6667 4.2325 11.6667 5.16409V10M11.6667 16.6667H16.6667M11.6667 16.6667V10M16.6667 16.6667H18.3333M16.6667 16.6667V10C16.6667 9.22343 16.6666 8.83534 16.5397 8.52905C16.3705 8.12067 16.0464 7.79602 15.638 7.62687C15.3317 7.5 14.943 7.5 14.1664 7.5C13.3899 7.5 13.0016 7.5 12.6953 7.62687C12.2869 7.79602 11.9627 8.12067 11.7935 8.52905C11.6667 8.83534 11.6667 9.22343 11.6667 10M5.83332 8.33333H9.16666M5.83332 5.83333H9.16666"
          stroke="currentColor" stroke-width="1.5" stroke-linecap="round"
          stroke-linejoin="round"/>
</svg>
